# xmcd
#
# Track frame offsets:
#	150
#	12415
#	33770
#	55613
#	73461
#	95580
#	116694
#	133482
#	151507
#	166703
#	185178
#	214133
#	233451
#
# Disc length: 3226 seconds
#
# Revision: 1
# Processed by: cddbd v1.5.2PL0 Copyright (c) Steve Scherf et al.
# Submitted via: audiograbber 1.83.01
#
DISCID=ae0c980d
DTITLE=Alan Jackson - CMT Invitation Only
DYEAR=2008
DGENRE=Country
TTITLE0=Gone Country
TTITLE1=Chattahoochee
TTITLE2=Remember When
TTITLE3=Good Time
TTITLE4=Small Town Southern Man
TTITLE5=Drive
TTITLE6=Sissy's Song
TTITLE7=Don't Rock The Jukebox
TTITLE8=It's Five O'Clock Somewhere
TTITLE9=Where I Come From
TTITLE10=I Still Like Bologna
TTITLE11=Country Boy
TTITLE12=Chasin' That Neon Rainbow
EXTD=
EXTT0=
EXTT1=
EXTT2=
EXTT3=
EXTT4=
EXTT5=
EXTT6=
EXTT7=
EXTT8=
EXTT9=
EXTT10=
EXTT11=
EXTT12=
PLAYORDER=
